<svg id="visual" viewBox="0 0 1440 920" width="1440" height="920" xmlns="http://www.w3.org/2000/svg" xmlns:xlink="http://www.w3.org/1999/xlink" version="1.1"><rect x="0" y="0" width="1440" height="920" fill="#000080"></rect><path d="M0 654L34.3 657.3C68.7 660.7 137.3 667.3 205.8 683.7C274.3 700 342.7 726 411.2 721.7C479.7 717.3 548.3 682.7 617 674.5C685.7 666.3 754.3 684.7 823 708.2C891.7 731.7 960.3 760.3 1028.8 773.8C1097.3 787.3 1165.7 785.7 1234.2 764.5C1302.7 743.3 1371.3 702.7 1405.7 682.3L1440 662L1440 921L1405.7 921C1371.3 921 1302.7 921 1234.2 921C1165.7 921 1097.3 921 1028.8 921C960.3 921 891.7 921 823 921C754.3 921 685.7 921 617 921C548.3 921 479.7 921 411.2 921C342.7 921 274.3 921 205.8 921C137.3 921 68.7 921 34.3 921L0 921Z" fill="#ed9121" stroke-linecap="round" stroke-linejoin="miter"></path></svg>