<svg id="visual" viewBox="0 0 1366 728" width="1366" height="728" xmlns="http://www.w3.org/2000/svg" xmlns:xlink="http://www.w3.org/1999/xlink" version="1.1"><rect x="0" y="0" width="1366" height="728" fill="#002233"></rect><path d="M0 607L32.5 592.3C65 577.7 130 548.3 195 523C260 497.7 325 476.3 390 468.3C455 460.3 520 465.7 585.2 487.8C650.3 510 715.7 549 780.8 555.2C846 561.3 911 534.7 976 514.2C1041 493.7 1106 479.3 1171 486.8C1236 494.3 1301 523.7 1333.5 538.3L1366 553L1366 729L1333.5 729C1301 729 1236 729 1171 729C1106 729 1041 729 976 729C911 729 846 729 780.8 729C715.7 729 650.3 729 585.2 729C520 729 455 729 390 729C325 729 260 729 195 729C130 729 65 729 32.5 729L0 729Z" fill="#0066FF" stroke-linecap="round" stroke-linejoin="miter"></path></svg>